<mxfile host="app.diagrams.net" modified="2020-07-28T17:26:41.200Z" agent="5.0 (X11; Linux x86_64) AppleWebKit/537.36 (KHTML, like Gecko) Chrome/84.0.4147.89 Safari/537.36" etag="pvfgNzMJ0aTaXNt8et2m" version="13.5.4" type="github">
  <diagram id="gIde7gS87XnFIk2CFl21" name="Page-1">
    <mxGraphModel dx="1214" dy="1180" grid="1" gridSize="10" guides="1" tooltips="1" connect="1" arrows="1" fold="1" page="1" pageScale="1" pageWidth="850" pageHeight="1100" math="0" shadow="0">
      <root>
        <mxCell id="0" />
        <mxCell id="1" parent="0" />
        <mxCell id="aY4t7E91Me1DjbRn4KLV-1" style="edgeStyle=orthogonalEdgeStyle;rounded=0;orthogonalLoop=1;jettySize=auto;html=1;exitX=0.936;exitY=0.005;exitDx=0;exitDy=0;entryX=0.5;entryY=0;entryDx=0;entryDy=0;strokeColor=#000000;endArrow=none;endFill=0;exitPerimeter=0;" parent="1" source="aY4t7E91Me1DjbRn4KLV-2" target="aY4t7E91Me1DjbRn4KLV-20" edge="1">
          <mxGeometry relative="1" as="geometry">
            <Array as="points">
              <mxPoint x="440" y="180" />
              <mxPoint x="270" y="180" />
            </Array>
          </mxGeometry>
        </mxCell>
        <mxCell id="aY4t7E91Me1DjbRn4KLV-2" value="" style="whiteSpace=wrap;html=1;aspect=fixed;" parent="1" vertex="1">
          <mxGeometry x="300" y="410" width="150" height="150" as="geometry" />
        </mxCell>
        <mxCell id="aY4t7E91Me1DjbRn4KLV-3" style="edgeStyle=orthogonalEdgeStyle;rounded=0;orthogonalLoop=1;jettySize=auto;html=1;exitX=0;exitY=0.84;exitDx=0;exitDy=0;exitPerimeter=0;entryX=0;entryY=0.84;entryDx=0;entryDy=0;entryPerimeter=0;endArrow=none;endFill=0;strokeColor=#000000;" parent="1" source="aY4t7E91Me1DjbRn4KLV-4" target="aY4t7E91Me1DjbRn4KLV-7" edge="1">
          <mxGeometry relative="1" as="geometry" />
        </mxCell>
        <mxCell id="aY4t7E91Me1DjbRn4KLV-4" value="Door-1-closed" style="pointerEvents=1;verticalLabelPosition=bottom;shadow=0;dashed=0;align=center;html=1;verticalAlign=top;shape=mxgraph.electrical.electro-mechanical.simple_switch;" parent="1" vertex="1">
          <mxGeometry x="60" y="200" width="75" height="19" as="geometry" />
        </mxCell>
        <mxCell id="aY4t7E91Me1DjbRn4KLV-5" style="edgeStyle=orthogonalEdgeStyle;rounded=0;orthogonalLoop=1;jettySize=auto;html=1;exitX=1;exitY=0.84;exitDx=0;exitDy=0;exitPerimeter=0;entryX=0.631;entryY=0;entryDx=0;entryDy=0;entryPerimeter=0;endArrow=none;endFill=0;strokeColor=#000000;" parent="1" source="aY4t7E91Me1DjbRn4KLV-4" target="aY4t7E91Me1DjbRn4KLV-2" edge="1">
          <mxGeometry relative="1" as="geometry">
            <Array as="points">
              <mxPoint x="190" y="216" />
              <mxPoint x="190" y="340" />
              <mxPoint x="360" y="340" />
              <mxPoint x="360" y="410" />
            </Array>
          </mxGeometry>
        </mxCell>
        <mxCell id="aY4t7E91Me1DjbRn4KLV-6" style="edgeStyle=orthogonalEdgeStyle;rounded=0;orthogonalLoop=1;jettySize=auto;html=1;exitX=1;exitY=0.84;exitDx=0;exitDy=0;exitPerimeter=0;entryX=0.121;entryY=-0.004;entryDx=0;entryDy=0;endArrow=none;endFill=0;strokeColor=#000000;entryPerimeter=0;" parent="1" source="aY4t7E91Me1DjbRn4KLV-7" target="aY4t7E91Me1DjbRn4KLV-2" edge="1">
          <mxGeometry relative="1" as="geometry">
            <Array as="points">
              <mxPoint x="135" y="360" />
              <mxPoint x="318" y="360" />
            </Array>
          </mxGeometry>
        </mxCell>
        <mxCell id="aY4t7E91Me1DjbRn4KLV-7" value="Door-1-opened" style="pointerEvents=1;verticalLabelPosition=bottom;shadow=0;dashed=0;align=center;html=1;verticalAlign=top;shape=mxgraph.electrical.electro-mechanical.simple_switch;" parent="1" vertex="1">
          <mxGeometry x="60" y="290" width="75" height="19" as="geometry" />
        </mxCell>
        <mxCell id="aY4t7E91Me1DjbRn4KLV-9" style="edgeStyle=orthogonalEdgeStyle;rounded=0;orthogonalLoop=1;jettySize=auto;html=1;endArrow=none;endFill=0;strokeColor=#000000;exitX=0;exitY=0.84;exitDx=0;exitDy=0;exitPerimeter=0;" parent="1" source="aY4t7E91Me1DjbRn4KLV-10" edge="1">
          <mxGeometry relative="1" as="geometry">
            <mxPoint x="40" y="300" as="targetPoint" />
            <mxPoint x="60" y="730" as="sourcePoint" />
          </mxGeometry>
        </mxCell>
        <mxCell id="aY4t7E91Me1DjbRn4KLV-30" style="edgeStyle=orthogonalEdgeStyle;rounded=0;orthogonalLoop=1;jettySize=auto;html=1;exitX=1;exitY=0.84;exitDx=0;exitDy=0;exitPerimeter=0;entryX=0.126;entryY=1.008;entryDx=0;entryDy=0;entryPerimeter=0;endArrow=none;endFill=0;" parent="1" source="aY4t7E91Me1DjbRn4KLV-10" target="aY4t7E91Me1DjbRn4KLV-2" edge="1">
          <mxGeometry relative="1" as="geometry">
            <Array as="points">
              <mxPoint x="180" y="726" />
              <mxPoint x="180" y="600" />
              <mxPoint x="319" y="600" />
            </Array>
          </mxGeometry>
        </mxCell>
        <mxCell id="aY4t7E91Me1DjbRn4KLV-10" value="Door-2-closed" style="pointerEvents=1;verticalLabelPosition=bottom;shadow=0;dashed=0;align=center;html=1;verticalAlign=top;shape=mxgraph.electrical.electro-mechanical.simple_switch;" parent="1" vertex="1">
          <mxGeometry x="70" y="710" width="75" height="19" as="geometry" />
        </mxCell>
        <mxCell id="aY4t7E91Me1DjbRn4KLV-11" style="edgeStyle=orthogonalEdgeStyle;rounded=0;orthogonalLoop=1;jettySize=auto;html=1;exitX=1;exitY=0.84;exitDx=0;exitDy=0;exitPerimeter=0;endArrow=none;endFill=0;strokeColor=#000000;" parent="1" source="aY4t7E91Me1DjbRn4KLV-13" edge="1">
          <mxGeometry relative="1" as="geometry">
            <Array as="points">
              <mxPoint x="220" y="816" />
              <mxPoint x="220" y="640" />
              <mxPoint x="360" y="640" />
            </Array>
            <mxPoint x="360" y="560" as="targetPoint" />
          </mxGeometry>
        </mxCell>
        <mxCell id="aY4t7E91Me1DjbRn4KLV-31" style="edgeStyle=orthogonalEdgeStyle;rounded=0;orthogonalLoop=1;jettySize=auto;html=1;exitX=0;exitY=0.84;exitDx=0;exitDy=0;exitPerimeter=0;entryX=0;entryY=0.84;entryDx=0;entryDy=0;entryPerimeter=0;endArrow=none;endFill=0;" parent="1" source="aY4t7E91Me1DjbRn4KLV-13" target="aY4t7E91Me1DjbRn4KLV-10" edge="1">
          <mxGeometry relative="1" as="geometry">
            <Array as="points">
              <mxPoint x="40" y="816" />
              <mxPoint x="40" y="726" />
            </Array>
          </mxGeometry>
        </mxCell>
        <mxCell id="aY4t7E91Me1DjbRn4KLV-13" value="Door-2-opened" style="pointerEvents=1;verticalLabelPosition=bottom;shadow=0;dashed=0;align=center;html=1;verticalAlign=top;shape=mxgraph.electrical.electro-mechanical.simple_switch;" parent="1" vertex="1">
          <mxGeometry x="70" y="800" width="75" height="19" as="geometry" />
        </mxCell>
        <mxCell id="aY4t7E91Me1DjbRn4KLV-14" style="edgeStyle=orthogonalEdgeStyle;rounded=0;orthogonalLoop=1;jettySize=auto;html=1;exitX=0;exitY=0.84;exitDx=0;exitDy=0;exitPerimeter=0;entryX=1;entryY=0.25;entryDx=0;entryDy=0;endArrow=none;endFill=0;strokeColor=#000000;" parent="1" source="aY4t7E91Me1DjbRn4KLV-15" target="aY4t7E91Me1DjbRn4KLV-2" edge="1">
          <mxGeometry relative="1" as="geometry" />
        </mxCell>
        <mxCell id="aY4t7E91Me1DjbRn4KLV-15" value="Open / close" style="pointerEvents=1;verticalLabelPosition=bottom;shadow=0;dashed=0;align=center;html=1;verticalAlign=top;shape=mxgraph.electrical.electro-mechanical.push_switch_no;" parent="1" vertex="1">
          <mxGeometry x="570" y="330" width="75" height="19" as="geometry" />
        </mxCell>
        <mxCell id="aY4t7E91Me1DjbRn4KLV-16" style="edgeStyle=orthogonalEdgeStyle;rounded=0;orthogonalLoop=1;jettySize=auto;html=1;exitX=0;exitY=0.84;exitDx=0;exitDy=0;exitPerimeter=0;endArrow=none;endFill=0;strokeColor=#000000;entryX=1.003;entryY=0.393;entryDx=0;entryDy=0;entryPerimeter=0;" parent="1" source="aY4t7E91Me1DjbRn4KLV-18" target="aY4t7E91Me1DjbRn4KLV-2" edge="1">
          <mxGeometry relative="1" as="geometry">
            <Array as="points">
              <mxPoint x="540" y="426" />
              <mxPoint x="540" y="469" />
            </Array>
            <mxPoint x="449" y="469" as="targetPoint" />
          </mxGeometry>
        </mxCell>
        <mxCell id="aY4t7E91Me1DjbRn4KLV-17" style="edgeStyle=orthogonalEdgeStyle;rounded=0;orthogonalLoop=1;jettySize=auto;html=1;exitX=1;exitY=0.84;exitDx=0;exitDy=0;exitPerimeter=0;entryX=1;entryY=0.84;entryDx=0;entryDy=0;entryPerimeter=0;endArrow=none;endFill=0;strokeColor=#000000;" parent="1" source="aY4t7E91Me1DjbRn4KLV-18" target="aY4t7E91Me1DjbRn4KLV-15" edge="1">
          <mxGeometry relative="1" as="geometry" />
        </mxCell>
        <mxCell id="aY4t7E91Me1DjbRn4KLV-18" value="Separate M2" style="pointerEvents=1;verticalLabelPosition=bottom;shadow=0;dashed=0;align=center;html=1;verticalAlign=top;shape=mxgraph.electrical.electro-mechanical.simple_switch;" parent="1" vertex="1">
          <mxGeometry x="570" y="410" width="75" height="19" as="geometry" />
        </mxCell>
        <mxCell id="aY4t7E91Me1DjbRn4KLV-19" style="edgeStyle=orthogonalEdgeStyle;rounded=0;orthogonalLoop=1;jettySize=auto;html=1;exitX=0.5;exitY=1;exitDx=0;exitDy=0;entryX=0.75;entryY=0;entryDx=0;entryDy=0;endArrow=none;endFill=0;strokeColor=#000000;" parent="1" source="aY4t7E91Me1DjbRn4KLV-20" target="aY4t7E91Me1DjbRn4KLV-2" edge="1">
          <mxGeometry relative="1" as="geometry">
            <Array as="points">
              <mxPoint x="270" y="320" />
              <mxPoint x="400" y="320" />
              <mxPoint x="400" y="410" />
            </Array>
          </mxGeometry>
        </mxCell>
        <mxCell id="aY4t7E91Me1DjbRn4KLV-20" value="M1" style="verticalLabelPosition=middle;shadow=0;dashed=0;align=center;html=1;verticalAlign=middle;strokeWidth=1;shape=ellipse;fontSize=32;perimeter=ellipsePerimeter;" parent="1" vertex="1">
          <mxGeometry x="220" y="200" width="100" height="100" as="geometry" />
        </mxCell>
        <mxCell id="aY4t7E91Me1DjbRn4KLV-22" style="edgeStyle=orthogonalEdgeStyle;rounded=0;orthogonalLoop=1;jettySize=auto;html=1;exitX=0.5;exitY=1;exitDx=0;exitDy=0;entryX=0.923;entryY=0.992;entryDx=0;entryDy=0;entryPerimeter=0;endArrow=none;endFill=0;strokeColor=#000000;" parent="1" source="aY4t7E91Me1DjbRn4KLV-23" target="aY4t7E91Me1DjbRn4KLV-2" edge="1">
          <mxGeometry relative="1" as="geometry" />
        </mxCell>
        <mxCell id="aY4t7E91Me1DjbRn4KLV-29" style="edgeStyle=orthogonalEdgeStyle;rounded=0;orthogonalLoop=1;jettySize=auto;html=1;exitX=0.5;exitY=0;exitDx=0;exitDy=0;entryX=0.667;entryY=1;entryDx=0;entryDy=0;entryPerimeter=0;endArrow=none;endFill=0;" parent="1" source="aY4t7E91Me1DjbRn4KLV-23" target="aY4t7E91Me1DjbRn4KLV-2" edge="1">
          <mxGeometry relative="1" as="geometry">
            <Array as="points">
              <mxPoint x="280" y="690" />
              <mxPoint x="400" y="690" />
            </Array>
          </mxGeometry>
        </mxCell>
        <mxCell id="aY4t7E91Me1DjbRn4KLV-23" value="M2" style="verticalLabelPosition=middle;shadow=0;dashed=0;align=center;html=1;verticalAlign=middle;strokeWidth=1;shape=ellipse;fontSize=32;perimeter=ellipsePerimeter;" parent="1" vertex="1">
          <mxGeometry x="230" y="710" width="100" height="100" as="geometry" />
        </mxCell>
        <mxCell id="aY4t7E91Me1DjbRn4KLV-24" style="edgeStyle=orthogonalEdgeStyle;rounded=0;orthogonalLoop=1;jettySize=auto;html=1;exitX=0;exitY=0.84;exitDx=0;exitDy=0;exitPerimeter=0;entryX=1;entryY=0.548;entryDx=0;entryDy=0;entryPerimeter=0;endArrow=none;endFill=0;strokeColor=#000000;" parent="1" source="aY4t7E91Me1DjbRn4KLV-25" target="aY4t7E91Me1DjbRn4KLV-2" edge="1">
          <mxGeometry relative="1" as="geometry">
            <Array as="points">
              <mxPoint x="570" y="492" />
              <mxPoint x="450" y="492" />
            </Array>
          </mxGeometry>
        </mxCell>
        <mxCell id="aY4t7E91Me1DjbRn4KLV-25" value="Light Sensor" style="pointerEvents=1;verticalLabelPosition=bottom;shadow=0;dashed=0;align=center;html=1;verticalAlign=top;shape=mxgraph.electrical.electro-mechanical.simple_switch;" parent="1" vertex="1">
          <mxGeometry x="570" y="540" width="75" height="19" as="geometry" />
        </mxCell>
        <mxCell id="aY4t7E91Me1DjbRn4KLV-26" style="edgeStyle=orthogonalEdgeStyle;rounded=0;orthogonalLoop=1;jettySize=auto;html=1;exitX=0.5;exitY=0;exitDx=0;exitDy=0;entryX=1;entryY=0.84;entryDx=0;entryDy=0;entryPerimeter=0;endArrow=none;endFill=0;strokeColor=#000000;" parent="1" source="aY4t7E91Me1DjbRn4KLV-28" target="aY4t7E91Me1DjbRn4KLV-25" edge="1">
          <mxGeometry relative="1" as="geometry" />
        </mxCell>
        <mxCell id="aY4t7E91Me1DjbRn4KLV-27" style="edgeStyle=orthogonalEdgeStyle;rounded=0;orthogonalLoop=1;jettySize=auto;html=1;exitX=0;exitY=0.5;exitDx=0;exitDy=0;entryX=1;entryY=0.75;entryDx=0;entryDy=0;endArrow=none;endFill=0;strokeColor=#000000;" parent="1" source="aY4t7E91Me1DjbRn4KLV-28" target="aY4t7E91Me1DjbRn4KLV-2" edge="1">
          <mxGeometry relative="1" as="geometry">
            <Array as="points">
              <mxPoint x="530" y="610" />
              <mxPoint x="530" y="508" />
            </Array>
          </mxGeometry>
        </mxCell>
        <mxCell id="aY4t7E91Me1DjbRn4KLV-28" value="~ 230V&amp;nbsp;" style="rounded=1;whiteSpace=wrap;html=1;" parent="1" vertex="1">
          <mxGeometry x="710" y="580" width="120" height="60" as="geometry" />
        </mxCell>
      </root>
    </mxGraphModel>
  </diagram>
</mxfile>
